<svg width="40" height="40" viewBox="0 0 40 40" fill="none" xmlns="http://www.w3.org/2000/svg">
<path d="M5.83301 10.833C5.83301 9.27988 5.83301 8.50363 6.08676 7.89051C6.25433 7.48609 6.49993 7.11865 6.80953 6.80916C7.11913 6.49967 7.48666 6.25419 7.89113 6.08676C8.50363 5.83301 9.27988 5.83301 10.833 5.83301H12.9168C14.4699 5.83301 15.2461 5.83301 15.8586 6.08676C16.2631 6.25419 16.6306 6.49967 16.9402 6.80916C17.2498 7.11865 17.4954 7.48609 17.663 7.89051C17.9168 8.50301 17.9168 9.27988 17.9168 10.833V12.9161C17.9168 14.4693 17.9168 15.2461 17.663 15.8586C17.3245 16.6754 16.6755 17.3242 15.8586 17.6624C15.2461 17.9161 14.4699 17.9161 12.9168 17.9161H10.833C9.27988 17.9161 8.50363 17.9161 7.89113 17.6624C7.48666 17.4949 7.11913 17.2495 6.80953 16.94C6.49993 16.6305 6.25433 16.263 6.08676 15.8586C5.83301 15.2461 5.83301 14.4693 5.83301 12.9161V10.833Z" fill="#696969"/>
<path fill-rule="evenodd" clip-rule="evenodd" d="M10.8037 5H12.9463C13.6975 5 14.3038 5 14.7975 5.03375C15.3044 5.06812 15.7531 5.14125 16.1781 5.31687C17.1988 5.73992 18.0097 6.55105 18.4325 7.57187C18.6088 7.99687 18.6819 8.44562 18.7162 8.95312C18.75 9.44625 18.75 10.0525 18.75 10.8037V12.9463C18.75 13.6975 18.75 14.3038 18.7162 14.7975C18.6819 15.3044 18.6088 15.7531 18.4325 16.1781C18.0097 17.1988 17.1988 18.0097 16.1781 18.4325C15.7531 18.6088 15.3044 18.6819 14.7969 18.7162C14.3037 18.75 13.6975 18.75 12.9463 18.75H10.8037C10.0525 18.75 9.44625 18.75 8.9525 18.7162C8.44563 18.6819 7.99687 18.6088 7.57187 18.4325C6.55105 18.0097 5.73992 17.1988 5.31687 16.1781C5.14125 15.7531 5.06812 15.3044 5.03375 14.7969C5 14.3044 5 13.6981 5 12.9469V10.8044C5 10.0531 5 9.44688 5.03375 8.95312C5.06812 8.44625 5.14125 7.9975 5.31687 7.5725C5.73979 6.55155 6.55093 5.74041 7.57187 5.3175C7.99687 5.14188 8.44562 5.06875 8.95312 5.03438C9.44562 5 10.0525 5 10.8037 5ZM9.06625 6.69625C8.64375 6.725 8.3975 6.77937 8.21 6.85687C7.90665 6.98251 7.63102 7.16668 7.39885 7.39885C7.16668 7.63102 6.98251 7.90665 6.85687 8.21C6.77937 8.3975 6.72562 8.64375 6.69625 9.06625C6.66687 9.49625 6.66687 10.0456 6.66687 10.8331V12.9169C6.66687 13.7044 6.66687 14.2544 6.69625 14.6838C6.725 15.1062 6.77937 15.3525 6.85687 15.54C6.98251 15.8434 7.16668 16.119 7.39885 16.3512C7.63102 16.5833 7.90665 16.7675 8.21 16.8931C8.3975 16.9706 8.64375 17.0244 9.06625 17.0537C9.49625 17.0831 10.0456 17.0831 10.8331 17.0831H12.9169C13.7044 17.0831 14.2544 17.0831 14.6838 17.0537C15.1062 17.025 15.3525 16.9706 15.54 16.8931C15.8434 16.7675 16.119 16.5833 16.3512 16.3512C16.5833 16.119 16.7675 15.8434 16.8931 15.54C16.9706 15.3525 17.0244 15.1062 17.0537 14.6838C17.0831 14.2537 17.0831 13.7044 17.0831 12.9169V10.8331C17.0831 10.0456 17.0831 9.49562 17.0537 9.06625C17.025 8.64375 16.9706 8.3975 16.8931 8.21C16.7675 7.90665 16.5833 7.63102 16.3512 7.39885C16.119 7.16668 15.8434 6.98251 15.54 6.85687C15.3525 6.77937 15.1062 6.72562 14.6838 6.69625C14.2537 6.66687 13.7044 6.66687 12.9169 6.66687H10.8331C10.0456 6.66687 9.49562 6.66687 9.06625 6.69625Z" fill="#696969"/>
<path d="M5.83301 27.083C5.83301 25.5299 5.83301 24.7536 6.08676 24.1405C6.25433 23.7361 6.49993 23.3686 6.80953 23.0592C7.11913 22.7497 7.48666 22.5042 7.89113 22.3368C8.50363 22.083 9.27988 22.083 10.833 22.083H12.9168C14.4699 22.083 15.2461 22.083 15.8586 22.3368C16.2631 22.5042 16.6306 22.7497 16.9402 23.0592C17.2498 23.3686 17.4954 23.7361 17.663 24.1405C17.9168 24.753 17.9168 25.5299 17.9168 27.083V29.1661C17.9168 30.7193 17.9168 31.4961 17.663 32.1086C17.3245 32.9254 16.6755 33.5742 15.8586 33.9124C15.2461 34.1661 14.4699 34.1661 12.9168 34.1661H10.833C9.27988 34.1661 8.50363 34.1661 7.89113 33.9124C7.48666 33.7449 7.11913 33.4995 6.80953 33.19C6.49993 32.8805 6.25433 32.513 6.08676 32.1086C5.83301 31.4961 5.83301 30.7193 5.83301 29.1661V27.083Z" fill="#696969"/>
<path fill-rule="evenodd" clip-rule="evenodd" d="M10.8037 21.25H12.9463C13.6975 21.25 14.3038 21.25 14.7975 21.2838C15.3044 21.3181 15.7531 21.3912 16.1781 21.5669C17.1989 21.9899 18.0098 22.801 18.4325 23.8219C18.6088 24.2469 18.6819 24.6956 18.7162 25.2031C18.75 25.6963 18.75 26.3025 18.75 27.0537V29.1963C18.75 29.9475 18.75 30.5537 18.7162 31.0475C18.6819 31.5544 18.6088 32.0031 18.4325 32.4281C18.0098 33.449 17.1989 34.2601 16.1781 34.6831C15.7531 34.8588 15.3044 34.9319 14.7969 34.9662C14.3037 35 13.6975 35 12.9463 35H10.8037C10.0525 35 9.44625 35 8.9525 34.9662C8.44563 34.9319 7.99687 34.8588 7.57187 34.6831C6.55093 34.2602 5.73979 33.4491 5.31687 32.4281C5.14125 32.0031 5.06812 31.5544 5.03375 31.0469C5 30.5544 5 29.9481 5 29.1969V27.0544C5 26.3031 5 25.6969 5.03375 25.2031C5.06812 24.6963 5.14125 24.2475 5.31687 23.8225C5.73979 22.8016 6.55093 21.9904 7.57187 21.5675C7.99687 21.3919 8.44562 21.3188 8.95312 21.2844C9.44562 21.25 10.0525 21.25 10.8037 21.25ZM9.06625 22.9463C8.64375 22.975 8.3975 23.0294 8.21 23.1069C7.90665 23.2325 7.63102 23.4167 7.39885 23.6488C7.16668 23.881 6.98251 24.1566 6.85687 24.46C6.77937 24.6475 6.72562 24.8938 6.69625 25.3163C6.66687 25.7463 6.66687 26.2956 6.66687 27.0831V29.1669C6.66687 29.9544 6.66687 30.5044 6.69625 30.9338C6.725 31.3562 6.77937 31.6025 6.85687 31.79C6.98251 32.0934 7.16668 32.369 7.39885 32.6012C7.63102 32.8333 7.90665 33.0175 8.21 33.1431C8.3975 33.2206 8.64375 33.2744 9.06625 33.3037C9.49625 33.3331 10.0456 33.3331 10.8331 33.3331H12.9169C13.7044 33.3331 14.2544 33.3331 14.6838 33.3037C15.1062 33.275 15.3525 33.2206 15.54 33.1431C15.8434 33.0175 16.119 32.8333 16.3512 32.6012C16.5833 32.369 16.7675 32.0934 16.8931 31.79C16.9706 31.6025 17.0244 31.3562 17.0537 30.9338C17.0831 30.5037 17.0831 29.9544 17.0831 29.1669V27.0831C17.0831 26.2956 17.0831 25.7456 17.0537 25.3163C17.025 24.8938 16.9706 24.6475 16.8931 24.46C16.7675 24.1566 16.5833 23.881 16.3512 23.6488C16.119 23.4167 15.8434 23.2325 15.54 23.1069C15.3525 23.0294 15.1062 22.9756 14.6838 22.9463C14.2537 22.9169 13.7044 22.9169 12.9169 22.9169H10.8331C10.0456 22.9169 9.49562 22.9169 9.06625 22.9463Z" fill="#696969"/>
<path d="M22.083 10.833C22.083 9.27988 22.083 8.50363 22.3368 7.89051C22.5043 7.48609 22.7499 7.11865 23.0595 6.80916C23.3691 6.49967 23.7367 6.25419 24.1411 6.08676C24.7536 5.83301 25.5299 5.83301 27.083 5.83301H29.1668C30.7199 5.83301 31.4961 5.83301 32.1086 6.08676C32.5131 6.25419 32.8806 6.49967 33.1902 6.80916C33.4998 7.11865 33.7454 7.48609 33.913 7.89051C34.1668 8.50301 34.1668 9.27988 34.1668 10.833V12.9161C34.1668 14.4693 34.1668 15.2461 33.913 15.8586C33.5745 16.6754 32.9255 17.3242 32.1086 17.6624C31.4961 17.9161 30.7199 17.9161 29.1668 17.9161H27.083C25.5299 17.9161 24.7536 17.9161 24.1411 17.6624C23.3243 17.3242 22.6753 16.6754 22.3368 15.8586C22.083 15.2461 22.083 14.4693 22.083 12.9161V10.833Z" fill="#696969"/>
<path fill-rule="evenodd" clip-rule="evenodd" d="M27.0537 5H29.1963C29.9475 5 30.5537 5 31.0475 5.03375C31.5544 5.06812 32.0031 5.14125 32.4281 5.31687C33.4491 5.73979 34.2602 6.55093 34.6831 7.57187C34.8588 7.99687 34.9319 8.44562 34.9662 8.95312C35 9.44625 35 10.0525 35 10.8037V12.9463C35 13.6975 35 14.3038 34.9662 14.7975C34.9319 15.3044 34.8588 15.7531 34.6831 16.1781C34.2601 17.1989 33.449 18.0098 32.4281 18.4325C32.0031 18.6088 31.5544 18.6819 31.0469 18.7162C30.5537 18.75 29.9475 18.75 29.1963 18.75H27.0537C26.3025 18.75 25.6963 18.75 25.2025 18.7162C24.6956 18.6819 24.2469 18.6088 23.8219 18.4325C22.801 18.0098 21.9899 17.1989 21.5669 16.1781C21.3912 15.7531 21.3181 15.3044 21.2838 14.7969C21.25 14.3044 21.25 13.6981 21.25 12.9469V10.8044C21.25 10.0531 21.25 9.44688 21.2838 8.95312C21.3181 8.44625 21.3912 7.9975 21.5669 7.5725C21.9898 6.55155 22.8009 5.74041 23.8219 5.3175C24.2469 5.14188 24.6956 5.06875 25.2031 5.03438C25.6956 5 26.3025 5 27.0537 5ZM25.3163 6.69625C24.8938 6.725 24.6475 6.77937 24.46 6.85687C24.1566 6.98251 23.881 7.16668 23.6488 7.39885C23.4167 7.63102 23.2325 7.90665 23.1069 8.21C23.0294 8.3975 22.9756 8.64375 22.9463 9.06625C22.9169 9.49625 22.9169 10.0456 22.9169 10.8331V12.9169C22.9169 13.7044 22.9169 14.2544 22.9463 14.6838C22.975 15.1062 23.0294 15.3525 23.1069 15.54C23.2325 15.8434 23.4167 16.119 23.6488 16.3512C23.881 16.5833 24.1566 16.7675 24.46 16.8931C24.6475 16.9706 24.8938 17.0244 25.3163 17.0537C25.7463 17.0831 26.2956 17.0831 27.0831 17.0831H29.1669C29.9544 17.0831 30.5044 17.0831 30.9338 17.0537C31.3562 17.025 31.6025 16.9706 31.79 16.8931C32.0934 16.7675 32.369 16.5833 32.6012 16.3512C32.8333 16.119 33.0175 15.8434 33.1431 15.54C33.2206 15.3525 33.2744 15.1062 33.3037 14.6838C33.3331 14.2537 33.3331 13.7044 33.3331 12.9169V10.8331C33.3331 10.0456 33.3331 9.49562 33.3037 9.06625C33.275 8.64375 33.2206 8.3975 33.1431 8.21C33.0175 7.90665 32.8333 7.63102 32.6012 7.39885C32.369 7.16668 32.0934 6.98251 31.79 6.85687C31.6025 6.77937 31.3562 6.72562 30.9338 6.69625C30.5037 6.66687 29.9544 6.66687 29.1669 6.66687H27.0831C26.2956 6.66687 25.7456 6.66687 25.3163 6.69625Z" fill="#696969"/>
<path d="M22.083 27.083C22.083 25.5299 22.083 24.7536 22.3368 24.1405C22.5043 23.7361 22.7499 23.3686 23.0595 23.0592C23.3691 22.7497 23.7367 22.5042 24.1411 22.3368C24.7536 22.083 25.5299 22.083 27.083 22.083H29.1668C30.7199 22.083 31.4961 22.083 32.1086 22.3368C32.5131 22.5042 32.8806 22.7497 33.1902 23.0592C33.4998 23.3686 33.7454 23.7361 33.913 24.1405C34.1668 24.753 34.1668 25.5299 34.1668 27.083V29.1661C34.1668 30.7193 34.1668 31.4961 33.913 32.1086C33.5745 32.9254 32.9255 33.5742 32.1086 33.9124C31.4961 34.1661 30.7199 34.1661 29.1668 34.1661H27.083C25.5299 34.1661 24.7536 34.1661 24.1411 33.9124C23.3243 33.5742 22.6753 32.9254 22.3368 32.1086C22.083 31.4961 22.083 30.7193 22.083 29.1661V27.083Z" fill="#696969"/>
<path fill-rule="evenodd" clip-rule="evenodd" d="M27.0537 21.25H29.1963C29.9475 21.25 30.5537 21.25 31.0475 21.2838C31.5544 21.3181 32.0031 21.3912 32.4281 21.5669C32.9337 21.7763 33.393 22.0832 33.7799 22.4701C34.1668 22.857 34.4738 23.3163 34.6831 23.8219C34.8588 24.2469 34.9319 24.6956 34.9662 25.2031C35 25.6963 35 26.3025 35 27.0537V29.1963C35 29.9475 35 30.5537 34.9662 31.0475C34.9319 31.5544 34.8588 32.0031 34.6831 32.4281C34.4738 32.9337 34.1668 33.393 33.7799 33.7799C33.393 34.1668 32.9337 34.4738 32.4281 34.6831C32.0031 34.8588 31.5544 34.9319 31.0469 34.9662C30.5537 35 29.9475 35 29.1963 35H27.0537C26.3025 35 25.6963 35 25.2025 34.9662C24.6956 34.9319 24.2469 34.8588 23.8219 34.6831C23.3163 34.4738 22.857 34.1668 22.4701 33.7799C22.0832 33.393 21.7763 32.9337 21.5669 32.4281C21.3912 32.0031 21.3181 31.5544 21.2838 31.0469C21.25 30.5544 21.25 29.9481 21.25 29.1969V27.0544C21.25 26.3031 21.25 25.6969 21.2838 25.2031C21.3181 24.6963 21.3912 24.2475 21.5669 23.8225C21.7763 23.317 22.0832 22.8576 22.4701 22.4707C22.857 22.0838 23.3163 21.7769 23.8219 21.5675C24.2469 21.3919 24.6956 21.3188 25.2031 21.2844C25.6956 21.25 26.3025 21.25 27.0537 21.25ZM25.3163 22.9463C24.8938 22.975 24.6475 23.0294 24.46 23.1069C24.1566 23.2325 23.881 23.4167 23.6488 23.6488C23.4167 23.881 23.2325 24.1566 23.1069 24.46C23.0294 24.6475 22.9756 24.8938 22.9463 25.3163C22.9169 25.7463 22.9169 26.2956 22.9169 27.0831V29.1669C22.9169 29.9544 22.9169 30.5044 22.9463 30.9338C22.975 31.3562 23.0294 31.6025 23.1069 31.79C23.2325 32.0934 23.4167 32.369 23.6488 32.6012C23.881 32.8333 24.1566 33.0175 24.46 33.1431C24.6475 33.2206 24.8938 33.2744 25.3163 33.3037C25.7463 33.3331 26.2956 33.3331 27.0831 33.3331H29.1669C29.9544 33.3331 30.5044 33.3331 30.9338 33.3037C31.3562 33.275 31.6025 33.2206 31.79 33.1431C32.0934 33.0175 32.369 32.8333 32.6012 32.6012C32.8333 32.369 33.0175 32.0934 33.1431 31.79C33.2206 31.6025 33.2744 31.3562 33.3037 30.9338C33.3331 30.5037 33.3331 29.9544 33.3331 29.1669V27.0831C33.3331 26.2956 33.3331 25.7456 33.3037 25.3163C33.275 24.8938 33.2206 24.6475 33.1431 24.46C33.0175 24.1566 32.8333 23.881 32.6012 23.6488C32.369 23.4167 32.0934 23.2325 31.79 23.1069C31.6025 23.0294 31.3562 22.9756 30.9338 22.9463C30.5037 22.9169 29.9544 22.9169 29.1669 22.9169H27.0831C26.2956 22.9169 25.7456 22.9169 25.3163 22.9463Z" fill="#696969"/>
</svg>
